<?xml version="1.0" standalone="no"?>
<!DOCTYPE svg PUBLIC "-//W3C//DTD SVG 20010904//EN"
 "http://www.w3.org/TR/2001/REC-SVG-20010904/DTD/svg10.dtd">
<svg version="1.0" xmlns="http://www.w3.org/2000/svg"
 width="1236.000000pt" height="811.000000pt" viewBox="0 0 1236.000000 811.000000"
 preserveAspectRatio="xMidYMid meet">

<g transform="translate(0.000000,811.000000) scale(0.100000,-0.100000)"
fill="#000000" stroke="none">
<path d="M7155 6150 c-110 -16 -213 -92 -266 -196 -32 -64 -34 -74 -34 -169 0
-86 4 -107 25 -148 51 -100 134 -173 234 -204 l56 -17 0 -883 0 -883 50 0 50
0 0 883 0 882 66 23 c74 26 79 29 144 93 90 88 123 204 96 335 -8 43 -19 80
-24 83 -5 3 -16 20 -25 37 -25 48 -112 121 -170 142 -65 24 -137 32 -202 22z
m135 -130 c79 -41 126 -122 115 -199 -15 -102 -78 -170 -175 -190 -32 -6 -35
-11 -40 -46 -4 -32 -10 -41 -32 -49 -55 -19 -58 -8 -58 244 0 241 1 244 50
263 24 9 102 -4 140 -23z"/>
<path d="M7197 5933 c-12 -11 -8 -188 4 -200 16 -16 74 13 88 44 31 68 -11
163 -72 163 -7 0 -17 -3 -20 -7z"/>
<path d="M6135 4840 c-503 -6 -491 -4 -540 -78 -22 -34 -72 -158 -97 -242 -5
-19 -15 -41 -20 -47 -6 -7 -8 -13 -5 -13 3 0 -3 -21 -13 -47 -15 -42 -23 -50
-59 -62 -62 -20 -94 -68 -99 -146 -6 -87 12 -159 53 -217 l35 -48 0 -114 c0
-111 1 -114 25 -130 26 -17 51 -20 160 -17 88 2 97 13 104 118 l6 88 465 3
c256 1 475 0 488 -3 20 -5 22 -11 22 -83 0 -70 3 -81 24 -101 22 -21 34 -23
125 -22 60 0 108 5 120 13 24 15 31 48 31 159 0 86 1 92 35 140 40 59 50 97
50 199 0 93 -17 124 -85 153 l-48 20 -58 161 c-82 230 -101 264 -172 300 -42
21 -67 21 -547 16z m25 -90 c0 -5 -28 -10 -62 -12 l-63 -3 -3 -37 -3 -37 113
-3 c168 -5 168 -4 168 43 l0 39 -65 0 c-37 0 -65 4 -65 10 0 6 72 10 197 10
284 0 295 -7 379 -235 30 -80 54 -150 54 -155 0 -6 -240 -10 -644 -10 l-643 0
54 147 c29 80 63 159 75 176 12 16 44 40 72 53 48 22 62 24 244 24 115 0 192
-4 192 -10z m-636 -518 c4 -2 14 -19 22 -38 26 -63 -23 -122 -91 -110 -80 15
-90 125 -14 155 22 8 61 5 83 -7z m195 -5 c42 -34 31 -116 -19 -137 -61 -25
-120 16 -120 83 0 23 31 60 60 70 19 6 61 -2 79 -16z m1029 -13 c42 -48 20
-114 -45 -130 -33 -9 -72 12 -92 48 -14 24 -14 30 2 63 28 60 90 69 135 19z
m158 24 c83 -30 62 -158 -25 -158 -80 0 -115 109 -48 150 38 24 32 23 73 8z"/>
<path d="M5799 3640 c-288 -21 -601 -72 -833 -136 -118 -33 -284 -89 -295
-100 -2 -2 674 -4 1503 -4 958 0 1505 3 1501 10 -7 12 -219 81 -350 114 -180
45 -323 69 -603 102 -150 18 -749 27 -923 14z"/>
<path d="M9748 2959 c-79 -11 -145 -45 -206 -106 -143 -142 -173 -368 -76
-563 37 -74 104 -143 171 -176 29 -14 65 -20 148 -22 61 -1 116 2 124 7 11 7
14 52 15 217 l1 209 -113 3 c-128 3 -131 1 -116 -71 8 -39 11 -42 47 -45 l37
-3 0 -58 c0 -32 3 -73 6 -90 6 -31 6 -31 -36 -31 -58 0 -105 31 -134 89 -92
183 -47 422 91 483 39 17 57 19 129 13 l84 -7 0 66 c0 52 -4 67 -17 74 -30 15
-95 20 -155 11z"/>
<path d="M2433 2948 c-10 -17 -17 -677 -8 -774 l7 -74 108 0 c169 0 238 37
281 149 37 98 7 241 -61 286 l-29 19 37 50 c34 47 37 56 37 121 0 123 -56 200
-165 224 -65 15 -197 14 -207 -1z m214 -167 c34 -51 30 -96 -12 -138 -57 -57
-69 -46 -73 75 l-4 103 33 -3 c25 -2 39 -12 56 -37z m-7 -311 c23 -12 40 -61
40 -117 0 -55 -12 -78 -50 -98 -58 -30 -60 -26 -60 98 0 63 3 117 7 120 9 10
42 8 63 -3z"/>
<path d="M3319 2949 c-87 -13 -171 -70 -215 -145 -41 -70 -57 -146 -57 -274
-1 -227 62 -355 204 -420 59 -26 168 -27 225 -1 136 62 204 201 204 418 0 173
-31 264 -115 342 -75 69 -154 95 -246 80z m117 -138 c89 -54 137 -248 100
-405 -26 -111 -64 -159 -141 -176 -76 -17 -147 26 -186 112 -21 46 -24 68 -24
173 0 129 16 198 57 251 50 63 133 82 194 45z"/>
<path d="M3948 2952 l-58 -3 0 -430 0 -429 178 2 177 3 3 67 3 67 -103 3 -103
3 -3 352 c-3 401 5 370 -94 365z"/>
<path d="M4478 2954 c-17 -5 -18 -33 -19 -387 -1 -210 -3 -396 -5 -413 -6 -51
11 -57 139 -52 201 8 279 52 348 194 31 65 33 76 37 199 6 192 -24 291 -116
381 -63 62 -110 77 -247 80 -66 2 -128 1 -137 -2z m213 -145 c68 -23 109 -82
128 -184 30 -163 -14 -326 -100 -370 -17 -9 -48 -15 -72 -13 l-42 3 -2 270
c-2 149 0 278 3 288 6 20 36 22 85 6z"/>
<path d="M6439 2952 l-67 -3 -7 -37 c-3 -20 -44 -209 -91 -419 -46 -210 -84
-386 -84 -392 0 -17 125 -14 139 3 6 8 15 33 19 57 7 41 10 44 46 50 22 4 62
4 89 0 l50 -6 20 -57 19 -58 59 0 c45 0 61 4 66 16 3 9 -10 88 -30 177 -20 89
-60 276 -89 414 -29 139 -57 254 -63 255 -5 2 -40 2 -76 0z m40 -475 c11 -54
21 -102 21 -107 0 -10 -92 -14 -102 -4 -3 3 0 29 7 57 8 29 19 78 25 111 7 32
15 54 20 50 4 -5 17 -53 29 -107z"/>
<path d="M6929 2948 c-18 -7 -19 -22 -19 -432 l0 -424 26 -5 c14 -2 45 -2 70
1 l44 5 0 159 c0 123 3 159 13 156 6 -3 45 -74 85 -159 l72 -154 63 -7 c71 -8
97 -3 97 18 0 8 -38 91 -85 184 l-85 170 44 44 c68 67 90 117 89 201 -1 102
-43 183 -117 223 -34 18 -260 34 -297 20z m224 -159 c37 -28 52 -90 37 -145
-16 -56 -49 -86 -97 -88 l-38 -1 -3 105 c-4 138 0 150 42 150 18 0 45 -9 59
-21z"/>
<path d="M7635 2951 l-40 -6 -3 -427 -2 -428 75 0 75 0 0 190 c0 105 4 190 8
190 5 0 53 -78 107 -172 53 -95 104 -181 113 -190 12 -14 31 -18 94 -18 43 0
78 3 78 8 0 4 -9 21 -19 39 -73 119 -221 396 -221 413 0 23 47 120 95 195 49
77 105 181 105 194 0 8 -23 11 -81 9 l-81 -3 -92 -167 c-50 -91 -95 -170 -100
-175 -5 -5 -6 64 -3 165 5 133 4 174 -6 177 -25 9 -63 11 -102 6z"/>
<path d="M8350 2945 c-10 -12 -12 -107 -9 -417 2 -222 5 -411 8 -421 3 -15 13
-17 75 -15 l71 3 3 417 c2 369 0 418 -14 432 -21 21 -117 22 -134 1z"/>
<path d="M8740 2950 l-25 -6 -3 -427 -2 -427 70 0 70 0 0 247 c0 148 4 243 9
238 5 -6 47 -100 94 -210 129 -304 109 -275 184 -275 l63 0 0 430 0 430 -40 1
c-22 1 -49 1 -60 1 -51 0 -48 15 -42 -247 3 -135 2 -245 -2 -245 -9 0 -38 67
-133 300 -41 102 -76 186 -77 188 -6 6 -84 8 -106 2z"/>
<path d="M5569 2933 c-3 -10 -3 -204 -1 -431 l4 -413 61 3 62 3 3 147 3 146
63 7 c144 16 218 100 219 253 1 105 -17 171 -61 222 -56 66 -96 80 -233 80
-103 0 -117 -2 -120 -17z m216 -135 c35 -27 55 -75 55 -133 0 -85 -38 -141
-104 -152 l-36 -6 0 157 0 156 29 0 c15 0 41 -10 56 -22z"/>
</g>
</svg>
